# xmcd
#
# Track frame offsets: 
#        150
#        32775
#        69285
#        99220
#        107545
#        137977
#        178562
#        212910
#        237390
#        263850
#
# Disc length: 3706 seconds
#
# Revision: 2
# Processed by: cddbd v1.5.2PL0 Copyright (c) Steve Scherf et al.
# Submitted via: ExactAudioCopy v0.99pb5
#
DISCID=880e780a
DTITLE=R. Brecker - Mr. Max
DYEAR=1989
DGENRE=Jazz
TTITLE0=Mr. Max
TTITLE1=Bumble Bee Blues
TTITLE2=Lover Man
TTITLE3=Moonlift
TTITLE4=Waltz for Pee Wee
TTITLE5=Poinciana
TTITLE6=Easy Living
TTITLE7=Anika
TTITLE8=Green Dolphin Street
TTITLE9=New Place
EXTD=YEAR: 1989
EXTT0=
EXTT1=
EXTT2=
EXTT3=
EXTT4=
EXTT5=
EXTT6=
EXTT7=
EXTT8=
EXTT9=
PLAYORDER=
